<svg width="20" height="22" viewBox="0 0 20 22" fill="none" xmlns="http://www.w3.org/2000/svg">
<path d="M16.772 2.26439H15.622V1.50039C15.622 1.34126 15.5588 1.18865 15.4463 1.07613C15.3338 0.963605 15.1811 0.900391 15.022 0.900391C14.8629 0.900391 14.7103 0.963605 14.5978 1.07613C14.4852 1.18865 14.422 1.34126 14.422 1.50039V2.26439H5.57802V1.50039C5.57802 1.34126 5.5148 1.18865 5.40228 1.07613C5.28976 0.963605 5.13715 0.900391 4.97802 0.900391C4.81889 0.900391 4.66627 0.963605 4.55375 1.07613C4.44123 1.18865 4.37802 1.34126 4.37802 1.50039V2.26439H3.22702C2.48164 2.26545 1.76712 2.56208 1.24015 3.08924C0.71319 3.61639 0.416809 4.33102 0.416016 5.07639V18.2894C0.417074 19.0346 0.713572 19.749 1.24051 20.2759C1.76744 20.8028 2.48182 21.0993 3.22702 21.1004H16.772C17.5176 21.0999 18.2326 20.8034 18.7598 20.2762C19.2871 19.749 19.5835 19.034 19.584 18.2884V5.07639C19.5835 4.33076 19.2871 3.61583 18.7598 3.08859C18.2326 2.56135 17.5176 2.26492 16.772 2.26439ZM18.384 18.2884C18.3835 18.7158 18.2135 19.1255 17.9113 19.4277C17.6091 19.7299 17.1994 19.8999 16.772 19.9004H3.22702C2.79991 19.8999 2.39046 19.73 2.08845 19.428C1.78644 19.1259 1.61654 18.7165 1.61602 18.2894V8.06839H18.385L18.384 18.2884ZM18.384 6.86839H1.61602V5.07639C1.61628 4.64912 1.78606 4.2394 2.0881 3.93718C2.39013 3.63496 2.79974 3.46492 3.22702 3.46439H4.37802V4.15439C4.37802 4.31352 4.44123 4.46613 4.55375 4.57865C4.66627 4.69118 4.81889 4.75439 4.97802 4.75439C5.13715 4.75439 5.28976 4.69118 5.40228 4.57865C5.5148 4.46613 5.57802 4.31352 5.57802 4.15439V3.46439H14.423V4.15439C14.423 4.31352 14.4862 4.46613 14.5988 4.57865C14.7113 4.69118 14.8639 4.75439 15.023 4.75439C15.1821 4.75439 15.3348 4.69118 15.4473 4.57865C15.5598 4.46613 15.623 4.31352 15.623 4.15439V3.46439H16.773C17.2002 3.46492 17.6098 3.63479 17.9119 3.93676C18.2141 4.23874 18.3842 4.6482 18.385 5.07539L18.384 6.86839ZM3.81502 11.7214C3.81502 11.4742 3.88833 11.2325 4.02568 11.0269C4.16303 10.8214 4.35825 10.6612 4.58666 10.5665C4.81507 10.4719 5.0664 10.4472 5.30888 10.4954C5.55135 10.5436 5.77408 10.6627 5.9489 10.8375C6.12371 11.0123 6.24277 11.2351 6.291 11.4775C6.33923 11.72 6.31448 11.9713 6.21987 12.1997C6.12526 12.4282 5.96504 12.6234 5.75948 12.7607C5.55392 12.8981 5.31224 12.9714 5.06502 12.9714C4.7335 12.9714 4.41555 12.8397 4.18113 12.6053C3.94671 12.3709 3.81502 12.0529 3.81502 11.7214ZM8.75002 11.7214C8.75002 11.4742 8.82333 11.2325 8.96068 11.0269C9.09803 10.8214 9.29325 10.6612 9.52166 10.5665C9.75007 10.4719 10.0014 10.4472 10.2439 10.4954C10.4864 10.5436 10.7091 10.6627 10.8839 10.8375C11.0587 11.0123 11.1778 11.2351 11.226 11.4775C11.2742 11.72 11.2495 11.9713 11.1549 12.1997C11.0603 12.4282 10.9 12.6234 10.6945 12.7607C10.4889 12.8981 10.2472 12.9714 10 12.9714C9.66849 12.9714 9.35055 12.8397 9.11613 12.6053C8.88171 12.3709 8.75002 12.0529 8.75002 11.7214ZM13.685 11.7214C13.685 11.4742 13.7583 11.2325 13.8957 11.0269C14.033 10.8214 14.2283 10.6612 14.4567 10.5665C14.6851 10.4719 14.9364 10.4472 15.1789 10.4954C15.4214 10.5436 15.6441 10.6627 15.8189 10.8375C15.9937 11.0123 16.1128 11.2351 16.161 11.4775C16.2092 11.72 16.1845 11.9713 16.0899 12.1997C15.9953 12.4282 15.835 12.6234 15.6295 12.7607C15.4239 12.8981 15.1822 12.9714 14.935 12.9714C14.6035 12.9714 14.2856 12.8397 14.0511 12.6053C13.8167 12.3709 13.685 12.0529 13.685 11.7214ZM3.81502 15.8004C3.81502 15.5532 3.88833 15.3115 4.02568 15.1059C4.16303 14.9004 4.35825 14.7402 4.58666 14.6455C4.81507 14.5509 5.0664 14.5262 5.30888 14.5744C5.55135 14.6226 5.77408 14.7417 5.9489 14.9165C6.12371 15.0913 6.24277 15.3141 6.291 15.5565C6.33923 15.799 6.31448 16.0503 6.21987 16.2787C6.12526 16.5072 5.96504 16.7024 5.75948 16.8397C5.55392 16.9771 5.31224 17.0504 5.06502 17.0504C4.7335 17.0504 4.41555 16.9187 4.18113 16.6843C3.94671 16.4499 3.81502 16.1319 3.81502 15.8004ZM8.75002 15.8004C8.74962 15.5531 8.82259 15.3112 8.95971 15.1054C9.09682 14.8996 9.2919 14.739 9.52027 14.6441C9.74865 14.5492 10 14.5242 10.2427 14.5722C10.4853 14.6202 10.7082 14.7391 10.8832 14.9138C11.0582 15.0885 11.1775 15.3113 11.2258 15.5538C11.2742 15.7963 11.2496 16.0478 11.1551 16.2763C11.0605 16.5048 10.9003 16.7001 10.6947 16.8376C10.4891 16.975 10.2473 17.0484 10 17.0484C9.66884 17.0484 9.3512 16.917 9.11684 16.683C8.88248 16.449 8.75055 16.1316 8.75002 15.8004ZM13.685 15.8004C13.685 15.5532 13.7583 15.3115 13.8957 15.1059C14.033 14.9004 14.2283 14.7402 14.4567 14.6455C14.6851 14.5509 14.9364 14.5262 15.1789 14.5744C15.4214 14.6226 15.6441 14.7417 15.8189 14.9165C15.9937 15.0913 16.1128 15.3141 16.161 15.5565C16.2092 15.799 16.1845 16.0503 16.0899 16.2787C15.9953 16.5072 15.835 16.7024 15.6295 16.8397C15.4239 16.9771 15.1822 17.0504 14.935 17.0504C14.6035 17.0504 14.2856 16.9187 14.0511 16.6843C13.8167 16.4499 13.685 16.1319 13.685 15.8004Z" fill="black"/>
</svg>
