<svg width="24" height="24" viewBox="0 0 24 24" fill="none" xmlns="http://www.w3.org/2000/svg">
<g clip-path="url(#clip0_1075_13672)">
<path d="M19.9491 4.05091C18.376 2.47702 16.3714 1.40501 14.189 0.970481C12.0065 0.53595 9.74426 0.758415 7.68827 1.60974C5.63228 2.46106 3.87495 3.903 2.63854 5.75317C1.40213 7.60335 0.742188 9.77864 0.742188 12.0039C0.742188 14.2292 1.40213 16.4045 2.63854 18.2547C3.87495 20.1048 5.63228 21.5468 7.68827 22.3981C9.74426 23.2494 12.0065 23.4719 14.189 23.0373C16.3714 22.6028 18.376 21.5308 19.9491 19.9569C20.9943 18.913 21.8235 17.6732 22.3893 16.3086C22.955 14.944 23.2462 13.4812 23.2462 12.0039C23.2462 10.5266 22.955 9.06387 22.3893 7.69922C21.8235 6.33458 20.9943 5.09485 19.9491 4.05091ZM18.8916 18.8934C17.5282 20.2575 15.791 21.1866 13.8995 21.5632C12.008 21.9398 10.0474 21.747 8.26551 21.0092C6.48364 20.2714 4.9606 19.0217 3.88903 17.4182C2.81746 15.8148 2.24551 13.9295 2.24551 12.0009C2.24551 10.0723 2.81746 8.18706 3.88903 6.58358C4.9606 4.98009 6.48364 3.73041 8.26551 2.9926C10.0474 2.2548 12.008 2.06201 13.8995 2.43863C15.791 2.81524 17.5282 3.74434 18.8916 5.10841C19.7975 6.01312 20.5162 7.08753 21.0065 8.2702C21.4969 9.45288 21.7492 10.7206 21.7492 12.0009C21.7492 13.2812 21.4969 14.5489 21.0065 15.7316C20.5162 16.9143 19.7975 17.9887 18.8916 18.8934ZM15.5293 14.4684C15.666 14.6099 15.7416 14.7993 15.7398 14.996C15.7381 15.1926 15.6593 15.3807 15.5202 15.5198C15.3811 15.6588 15.193 15.7377 14.9964 15.7394C14.7997 15.7411 14.6103 15.6655 14.4688 15.5289L11.4688 12.5289C11.3297 12.3882 11.2509 12.1988 11.2491 12.0009V4.50091C11.2491 4.302 11.3281 4.11123 11.4688 3.97058C11.6094 3.82993 11.8002 3.75091 11.9991 3.75091C12.198 3.75091 12.3888 3.82993 12.5294 3.97058C12.6701 4.11123 12.7491 4.302 12.7491 4.50091V11.6904L15.5293 14.4684Z" fill="#364F6B"/>
</g>
<defs>
<clipPath id="clip0_1075_13672">
<rect width="24" height="24" fill="white"/>
</clipPath>
</defs>
</svg>
