<svg width="30" height="32" viewBox="0 0 30 32" fill="none" xmlns="http://www.w3.org/2000/svg">
<ellipse cx="14.8679" cy="16.198" rx="6.85228" ry="6.85228" fill="white"/>
<path d="M16.6882 26.415H6.57483C6.57483 26.415 4.55701 27.0208 4.55701 29.2075C4.55701 31.3942 6.57483 32 6.57483 32H16.6882C24.8908 32 29.6816 23.8656 29.6816 20.4526C29.6816 20.4526 29.3351 18.3638 26.8454 18.3638C24.3557 18.3638 24.0091 20.4526 24.0091 20.4526C24.0091 21.2007 21.6871 26.1325 16.6882 26.415Z" fill="white"/>
<path d="M13.3118 5.58502L23.4252 5.58503C23.4252 5.58503 25.443 4.97921 25.443 2.79252C25.443 0.605819 23.4252 4.04012e-06 23.4252 4.04012e-06L13.3118 2.27184e-06C5.10923 8.37662e-07 0.318358 8.13445 0.318357 11.5474C0.318357 11.5474 0.664897 13.6362 3.1546 13.6362C5.64431 13.6362 5.99085 11.5474 5.99085 11.5474C5.99085 10.7993 8.31294 5.86748 13.3118 5.58502Z" fill="white"/>
</svg>
