<svg width="18" height="20" viewBox="0 0 18 20" fill="none" xmlns="http://www.w3.org/2000/svg">
<path d="M14.9293 2.45491C13.3575 0.883056 11.2256 0 9.00267 0C6.77973 0 4.64785 0.883056 3.076 2.45491C1.50415 4.02676 0.621094 6.15864 0.621094 8.38157C0.621094 10.6045 1.50415 12.7364 3.076 14.3082L8.60177 19.834C8.65433 19.8866 8.71675 19.9284 8.78546 19.9569C8.85417 19.9853 8.92782 20 9.00219 20C9.07657 20 9.15022 19.9853 9.21893 19.9569C9.28763 19.9284 9.35005 19.8866 9.40262 19.834L14.9284 14.3082C16.497 12.7347 17.3779 10.6036 17.3781 8.38177C17.3783 6.15994 16.4977 4.02865 14.9293 2.45491ZM14.1285 13.5064L9.00267 18.6332L3.87685 13.5074C2.86301 12.4936 2.17256 11.2019 1.89283 9.79571C1.61309 8.3895 1.75663 6.93192 2.30529 5.60729C2.85395 4.28267 3.7831 3.15049 4.97522 2.35392C6.16734 1.55736 7.56891 1.1322 9.00267 1.1322C10.4364 1.1322 11.838 1.55736 13.0301 2.35392C14.2222 3.15049 15.1514 4.28267 15.7 5.60729C16.2487 6.93192 16.3922 8.3895 16.1125 9.79571C15.8328 11.2019 15.1423 12.4936 14.1285 13.5074V13.5064ZM9.00267 4.71879C8.33103 4.71879 7.67449 4.91795 7.11604 5.29109C6.5576 5.66423 6.12235 6.19459 5.86533 6.81509C5.60831 7.4356 5.54106 8.11839 5.67209 8.77711C5.80311 9.43584 6.12654 10.0409 6.60145 10.5158C7.07637 10.9908 7.68145 11.3142 8.34017 11.4452C8.9989 11.5762 9.68169 11.509 10.3022 11.252C10.9227 10.9949 11.4531 10.5597 11.8262 10.0012C12.1993 9.4428 12.3985 8.78625 12.3985 8.11462C12.3985 7.21399 12.0407 6.35025 11.4039 5.71341C10.767 5.07657 9.9033 4.71879 9.00267 4.71879ZM9.00267 10.3785C8.55491 10.3785 8.11721 10.2457 7.74492 9.99697C7.37262 9.74822 7.08246 9.39464 6.91111 8.98097C6.73976 8.5673 6.69493 8.11211 6.78228 7.67296C6.86963 7.23381 7.08525 6.83042 7.40186 6.51381C7.71847 6.1972 8.12185 5.98159 8.561 5.89424C9.00015 5.80688 9.45535 5.85172 9.86902 6.02306C10.2827 6.19441 10.6363 6.48458 10.885 6.85687C11.1338 7.22917 11.2666 7.66687 11.2666 8.11462C11.2666 8.71504 11.028 9.29087 10.6035 9.71543C10.1789 10.14 9.60309 10.3785 9.00267 10.3785Z" fill="#fff"/>
</svg>
