<svg width="24" height="24" viewBox="0 0 24 24" fill="none" xmlns="http://www.w3.org/2000/svg">
<path d="M22.5391 8.82579C22.3746 7.91464 21.8926 7.09125 21.1786 6.50177C20.4647 5.91228 19.5649 5.59484 18.6391 5.60579L18.1991 3.11279C18.1399 2.77243 17.9917 2.45379 17.7696 2.18921C17.5474 1.92463 17.2593 1.72354 16.9343 1.60634C16.6093 1.48915 16.2591 1.46002 15.9192 1.52192C15.5793 1.58382 15.2619 1.73454 14.9991 1.95879L12.2281 4.31179C11.5739 4.86572 10.7843 5.236 9.9401 5.38479L4.1401 6.40679C3.2744 6.56092 2.50512 7.05199 2.00088 7.77236C1.49664 8.49273 1.29858 9.38363 1.4501 10.2498L2.2341 14.6998C2.38725 15.5663 2.8782 16.3364 3.59902 16.8411C4.31984 17.3457 5.21154 17.5434 6.0781 17.3908L6.9181 17.2428L7.4891 20.4828C7.54478 20.7986 7.66211 21.1003 7.83439 21.3707C8.00666 21.6411 8.23052 21.8749 8.49317 22.0588C8.75582 22.2427 9.05212 22.3731 9.36516 22.4425C9.67819 22.5119 10.0018 22.519 10.3176 22.4633C10.6334 22.4076 10.9351 22.2903 11.2055 22.118C11.4759 21.9457 11.7097 21.7219 11.8936 21.4592C12.0776 21.1966 12.2079 20.9003 12.2773 20.5872C12.3467 20.2742 12.3538 19.9506 12.2981 19.6348L11.7261 16.3998L11.8761 16.3738C12.7207 16.2253 13.5896 16.3037 14.3941 16.6008L17.8051 17.8618C18.0248 17.9439 18.2575 17.9863 18.4921 17.9868C18.7774 17.9849 19.0588 17.9209 19.3168 17.7992C19.5748 17.6775 19.8032 17.5011 19.9861 17.2822C20.169 17.0633 20.3021 16.8072 20.376 16.5317C20.4499 16.2562 20.4629 15.9678 20.4141 15.6868L19.9751 13.1958C20.8506 12.8887 21.5888 12.2811 22.0583 11.4809C22.5278 10.6806 22.6981 9.73982 22.5391 8.82579ZM10.1171 21.2878C9.79149 21.3426 9.45737 21.2673 9.18684 21.0779C8.91632 20.8886 8.73108 20.6005 8.6711 20.2758L8.0991 17.0348L10.5441 16.6038L11.1151 19.8438C11.1735 20.1675 11.1012 20.5012 10.9142 20.7718C10.7272 21.0424 10.4406 21.228 10.1171 21.2878ZM18.9701 16.5998C18.8684 16.6866 18.7451 16.7444 18.6133 16.7671C18.4815 16.7898 18.346 16.7766 18.2211 16.7288L14.8101 15.4698C13.8062 15.0993 12.722 15.0016 11.6681 15.1868L5.8691 16.2098C5.31638 16.3042 4.74874 16.1767 4.28946 15.855C3.83018 15.5333 3.51634 15.0435 3.4161 14.4918L2.6321 10.0418C2.53528 9.48876 2.66179 8.91991 2.98386 8.46004C3.30594 8.00017 3.79729 7.68684 4.3501 7.58879L10.1501 6.56679C11.2016 6.38007 12.1847 5.91767 12.9991 5.22679L15.7731 2.87479C15.875 2.78849 15.9978 2.7306 16.1292 2.70694C16.2606 2.68328 16.3959 2.6947 16.5214 2.74004C16.647 2.78537 16.7584 2.86303 16.8444 2.96517C16.9303 3.06731 16.9879 3.19032 17.0111 3.32179L17.5381 6.31179C17.5381 6.31979 17.5381 6.32779 17.5381 6.33679C17.5381 6.34579 17.5461 6.35179 17.5471 6.36079L18.6991 12.8498C18.6991 12.8588 18.6991 12.8668 18.6991 12.8748C18.6991 12.8828 18.7061 12.8908 18.7081 12.8998L19.2351 15.8878C19.2588 16.0193 19.2466 16.1548 19.2 16.28C19.1534 16.4053 19.074 16.5157 18.9701 16.5998ZM19.7631 11.9888L18.8481 6.79979C19.4567 6.83524 20.0355 7.075 20.4909 7.48029C20.9463 7.88557 21.2517 8.43266 21.3575 9.03303C21.4634 9.6334 21.3635 10.2519 21.0742 10.7885C20.7848 11.3251 20.3229 11.7474 19.7631 11.9888Z" fill="white"/>
</svg>
