<svg width="24" height="25" viewBox="0 0 24 25" fill="none" xmlns="http://www.w3.org/2000/svg">
<path d="M15.2091 8.37467L18.4174 5.16634M20.2507 3.33301L18.4174 5.16634L20.2507 3.33301ZM11.4416 12.1422C11.9149 12.6092 12.2911 13.1652 12.5487 13.7782C12.8062 14.3913 12.94 15.0492 12.9422 15.7141C12.9444 16.379 12.8151 17.0378 12.5617 17.6525C12.3082 18.2673 11.9357 18.8258 11.4655 19.296C10.9954 19.7661 10.4368 20.1387 9.8221 20.3921C9.20737 20.6455 8.54857 20.7748 7.88365 20.7726C7.21873 20.7704 6.56082 20.6367 5.9478 20.3791C5.33478 20.1216 4.77875 19.7453 4.31174 19.272C3.39336 18.3211 2.88519 17.0476 2.89667 15.7257C2.90816 14.4038 3.43839 13.1393 4.37315 12.2045C5.30792 11.2697 6.57243 10.7395 7.89434 10.728C9.21625 10.7165 10.4898 11.2247 11.4407 12.1431L11.4416 12.1422ZM11.4416 12.1422L15.2091 8.37467L11.4416 12.1422ZM15.2091 8.37467L17.9591 11.1247L21.1674 7.91634L18.4174 5.16634L15.2091 8.37467Z" stroke="#0B2846" stroke-width="1.6" stroke-linecap="round" stroke-linejoin="round"/>
</svg>
