<svg width="64" height="65" viewBox="0 0 64 65" fill="none" xmlns="http://www.w3.org/2000/svg">
<g clip-path="url(#clip0_1075_13580)">
<path d="M32.1178 32.7681L35.7702 27.4301C35.7963 27.3864 35.8225 27.3339 35.8487 27.2845L36.9644 25.6509C37.1355 25.4022 37.3645 25.1987 37.6317 25.0583C37.899 24.9178 38.1962 24.8445 38.4981 24.8445C38.8 24.8445 39.0974 24.9178 39.3646 25.0583C39.6318 25.1987 39.8608 25.4022 40.032 25.6509L42.0887 28.6545C46.1981 27.4106 50.5948 27.4913 54.656 28.8846C54.824 28.9438 55.0036 28.962 55.18 28.9375C55.3565 28.9131 55.5245 28.8467 55.67 28.744C55.8155 28.6413 55.9344 28.5053 56.0166 28.3473C56.0988 28.1893 56.142 28.0137 56.1426 27.8356V6.97622C56.1414 6.07528 55.9628 5.18313 55.6169 4.35122C55.271 3.51932 54.7646 2.76369 54.1267 2.1275C53.4887 1.49132 52.7317 0.987066 51.8989 0.643481C51.066 0.299897 50.1737 0.123678 49.2727 0.125016H6.86985C5.05247 0.121152 3.30793 0.839166 2.01971 2.12111C0.731493 3.40305 0.00500883 5.14429 0 6.96166V49.2887C0.00500883 51.1061 0.731493 52.8473 2.01971 54.1293C3.30793 55.4112 5.05247 56.1289 6.86985 56.125H27.5389C27.716 56.1257 27.8908 56.0841 28.0486 56.0036C28.2063 55.923 28.3426 55.8058 28.4459 55.6619C28.5493 55.5181 28.6168 55.3518 28.6427 55.1765C28.6686 55.0013 28.6522 54.8221 28.5949 54.6545C27.1273 50.2855 27.1852 45.5478 28.7592 41.2159C28.8333 41.0013 28.8548 40.7722 28.8218 40.5476C28.7889 40.323 28.7025 40.1097 28.57 39.9254C28.4374 39.7412 28.2626 39.5913 28.0601 39.4887C27.8577 39.386 27.6335 39.3333 27.4065 39.3352H10.2167C9.88458 39.3363 9.55844 39.2472 9.27299 39.0774C8.98755 38.9076 8.75351 38.6635 8.59597 38.3711C8.43843 38.0787 8.36328 37.7491 8.37846 37.4173C8.39364 37.0855 8.49859 36.764 8.68217 36.4872L21.2974 17.6744C21.468 17.4218 21.698 17.2148 21.9672 17.0717C22.2364 16.9287 22.5366 16.8541 22.8414 16.8541C23.1463 16.8541 23.4465 16.9287 23.7156 17.0717C23.9848 17.2148 24.2148 17.4218 24.3855 17.6744L32.0946 29.1769L30.4204 31.6176C30.3451 31.7282 30.2924 31.8526 30.2653 31.9837C30.2381 32.1147 30.2371 32.25 30.2623 32.3814C30.2874 32.5129 30.3382 32.6379 30.4118 32.7497C30.4853 32.8615 30.5801 32.9576 30.6909 33.0327C30.862 33.1499 31.0654 33.2111 31.2727 33.2074C31.4384 33.207 31.6016 33.167 31.7487 33.0906C31.8957 33.0141 32.0223 32.9035 32.1178 32.7681ZM31.3062 17.853C31.3039 17.1885 31.4988 16.5383 31.8663 15.9847C32.2338 15.4311 32.7573 14.9991 33.3705 14.7433C33.9837 14.4874 34.6591 14.4194 35.3111 14.5476C35.9631 14.6758 36.5623 14.9944 37.0329 15.4634C37.5036 15.9325 37.8245 16.5307 37.955 17.1822C38.0855 17.8337 38.0196 18.5095 37.7659 19.1236C37.5121 19.7377 37.0819 20.2627 36.5296 20.6321C35.9772 21.0015 35.3277 21.1985 34.6633 21.1985C34.223 21.2001 33.7867 21.1149 33.3794 20.9475C32.9722 20.78 32.602 20.5338 32.2901 20.223C31.9782 19.9122 31.7308 19.5427 31.562 19.136C31.3931 18.7294 31.3062 18.2933 31.3062 17.853Z" fill="#EFEFEF"/>
<path d="M48.1457 32.4336C45.0119 32.4353 41.949 33.3663 39.3442 35.1087C36.7394 36.8511 34.7098 39.3268 33.5119 42.2227C32.314 45.1185 32.0017 48.3045 32.6144 51.3778C33.2272 54.4512 34.7375 57.2736 36.9544 59.4886C39.1712 61.7037 41.9952 63.2119 45.069 63.8221C48.1428 64.4323 51.3285 64.1172 54.2234 62.9169C57.1182 61.7166 59.5922 59.6851 61.3325 57.0788C63.0727 54.4726 64.0011 51.409 64.0003 48.2752C63.9999 46.1939 63.5894 44.1329 62.7924 42.2102C61.9953 40.2876 60.8273 38.5407 59.3549 37.0696C57.8826 35.5985 56.1349 34.4318 54.2116 33.6364C52.2883 32.8409 50.227 32.4323 48.1457 32.4336ZM53.9538 49.2539H51.1901V57.7195C51.1878 58.1134 51.0297 58.4904 50.7504 58.7681C50.471 59.0458 50.093 59.2017 49.6991 59.2017H46.5879C46.3925 59.2031 46.1989 59.1655 46.018 59.0916C45.8372 59.0177 45.6728 58.9088 45.5343 58.771C45.3958 58.6331 45.286 58.4692 45.2112 58.2887C45.1364 58.1082 45.0981 57.9148 45.0985 57.7195V49.2539H42.3348C42.0563 49.2548 41.7832 49.1769 41.5469 49.0295C41.3106 48.882 41.1208 48.671 40.9992 48.4205C40.8776 48.1699 40.8293 47.8901 40.8597 47.6133C40.8902 47.3364 40.9981 47.0737 41.1712 46.8555L46.9283 39.5217C47.0734 39.3393 47.2577 39.1918 47.4676 39.0906C47.6775 38.9893 47.9076 38.9368 48.1406 38.9368C48.3737 38.9368 48.6038 38.9893 48.8137 39.0906C49.0236 39.1918 49.2079 39.3393 49.353 39.5217L55.1101 46.8555C55.2811 47.0728 55.3879 47.3338 55.4183 47.6087C55.4488 47.8836 55.4018 48.1613 55.2825 48.4109C55.1632 48.6604 54.9766 48.8716 54.7435 49.0206C54.5105 49.1696 54.2404 49.2504 53.9639 49.2539H53.9538Z" fill="#EFEFEF"/>
</g>
<defs>
<clipPath id="clip0_1075_13580">
<rect width="64" height="64" fill="white" transform="translate(0 0.125)"/>
</clipPath>
</defs>
</svg>
