<svg width="20" height="21" viewBox="0 0 20 21" fill="none" xmlns="http://www.w3.org/2000/svg">
<path d="M9.99807 0.953125C4.47505 0.953125 -0.00195312 5.43034 -0.00195312 10.9531C-0.00195312 12.3871 0.328057 13.7687 0.904057 15.0469C0.0840568 19.2819 0.0290568 19.7656 0.0290568 19.7656C-0.104943 20.4592 0.491047 21.0532 1.18605 20.9219C1.18605 20.9219 1.62706 20.825 5.90406 20.0156C7.18206 20.5915 8.56407 20.9531 9.99807 20.9531C15.5211 20.9531 19.9981 16.4759 19.9981 10.9531C19.9981 5.43034 15.5211 0.953125 9.99807 0.953125ZM7.18604 5.95313C8.12307 5.95313 9.37307 7.20313 9.37307 8.14063C9.37307 8.45313 8.71907 9.5645 8.74807 9.7031C8.95607 10.6959 10.2521 12.0233 11.2481 12.2031C11.3671 12.2246 12.4981 11.5781 12.8101 11.5781C13.7481 11.5781 14.9981 12.8281 14.9981 13.7656C14.9981 14.7031 13.7481 15.9531 12.8101 15.9531C11.6021 15.9531 9.37307 14.7031 8.12307 13.4531C7.98805 13.3186 7.63305 12.9626 7.49805 12.8281C6.24805 11.5781 4.99805 9.3488 4.99805 8.14063C4.99805 7.20313 6.24804 5.95313 7.18604 5.95313Z" fill="white"/>
</svg>
